# xmcd
#
# Track frame offsets:
# 150
# 21319
# 38187
# 52773
# 67100
# 79317
# 97752
# 118930
# 133870
# 151550
# 171198
# 192517
# 205712
# 226093
# 243085
#
# Disc length: 3569 seconds
#
#
# Revision: 1
# Processed by: cddbd v1.5.1PL0 Copyright (c) Steve Scherf et al.
# Submitted via: FreeRIP 2.53 
#
DISCID=be0def0f
DTITLE=Maracatu Leao Coroado - Maracatu Leao Coroado 140 anos
DYEAR=2004
DGENRE=Maracatu
TTITLE0=Princesa Dona Isabé
TTITLE1=Lanceiro novo
TTITLE2=Braço forte
TTITLE3=A bandeira é brasileira
TTITLE4=Oriô Oriô
TTITLE5=O carnaval tem seus direitos
TTITLE6=Samba lê lê
TTITLE7=O mestre Luiz de França
TTITLE8=Ô tabu tabutá
TTITLE9=Nagô, nagô
TTITLE10=Lanceiro, sentido
TTITLE11=Nação de África nação de mina
TTITLE12=Arreda do caminho
TTITLE13=Resplendor, coroou
TTITLE14=Belas catitas
EXTD=YEAR: 2004
EXTT0=
EXTT1=
EXTT2=
EXTT3=
EXTT4=
EXTT5=
EXTT6=
EXTT7=
EXTT8=
EXTT9=
EXTT10=
EXTT11=
EXTT12=
EXTT13=
EXTT14=
PLAYORDER=
